<svg width="148" height="38" viewBox="0 0 148 38" fill="none" xmlns="http://www.w3.org/2000/svg">
<path d="M57.3047 26.5H54.2773V14.7422H50.4004V12.2227H61.1816V14.7422H57.3047V26.5ZM69.2383 15.377C69.6419 15.377 69.9772 15.4062 70.2441 15.4648L70.0195 18.2578C69.7786 18.1927 69.4857 18.1602 69.1406 18.1602C68.1901 18.1602 67.4479 18.4043 66.9141 18.8926C66.3867 19.3809 66.123 20.0645 66.123 20.9434V26.5H63.1445V15.582H65.4004L65.8398 17.418H65.9863C66.3249 16.806 66.7806 16.3145 67.3535 15.9434C67.9329 15.5658 68.5612 15.377 69.2383 15.377ZM72.0996 12.7598C72.0996 11.7897 72.64 11.3047 73.7207 11.3047C74.8014 11.3047 75.3418 11.7897 75.3418 12.7598C75.3418 13.222 75.2051 13.5833 74.9316 13.8438C74.6647 14.0977 74.2611 14.2246 73.7207 14.2246C72.64 14.2246 72.0996 13.7363 72.0996 12.7598ZM75.2051 26.5H72.2266V15.582H75.2051V26.5ZM84.3359 26.6953C83.0534 26.6953 82.0475 26.2298 81.3184 25.2988H81.1621C81.2663 26.2103 81.3184 26.7376 81.3184 26.8809V31.3047H78.3398V15.582H80.7617L81.1816 16.998H81.3184C82.015 15.9173 83.0469 15.377 84.4141 15.377C85.7031 15.377 86.7122 15.875 87.4414 16.8711C88.1706 17.8672 88.5352 19.2507 88.5352 21.0215C88.5352 22.1868 88.3626 23.1992 88.0176 24.0586C87.679 24.918 87.194 25.5723 86.5625 26.0215C85.931 26.4707 85.1888 26.6953 84.3359 26.6953ZM83.457 17.7598C82.7214 17.7598 82.1842 17.9876 81.8457 18.4434C81.5072 18.8926 81.3314 19.638 81.3184 20.6797V21.002C81.3184 22.1738 81.4909 23.0137 81.8359 23.5215C82.1875 24.0293 82.7409 24.2832 83.4961 24.2832C84.8307 24.2832 85.498 23.1829 85.498 20.9824C85.498 19.9082 85.332 19.1042 85 18.5703C84.6745 18.0299 84.1602 17.7598 83.457 17.7598ZM96.6504 18.4824H102.314V25.8848C101.396 26.1842 100.531 26.3926 99.7168 26.5098C98.9095 26.6335 98.0827 26.6953 97.2363 26.6953C95.0814 26.6953 93.4342 26.0638 92.2949 24.8008C91.1621 23.5312 90.5957 21.7116 90.5957 19.3418C90.5957 17.0371 91.2533 15.2402 92.5684 13.9512C93.89 12.6621 95.7194 12.0176 98.0566 12.0176C99.5215 12.0176 100.934 12.3105 102.295 12.8965L101.289 15.3184C100.247 14.7975 99.1634 14.5371 98.0371 14.5371C96.7285 14.5371 95.6803 14.9766 94.8926 15.8555C94.1048 16.7344 93.7109 17.916 93.7109 19.4004C93.7109 20.9499 94.0267 22.1348 94.6582 22.9551C95.2962 23.7689 96.2207 24.1758 97.4316 24.1758C98.0632 24.1758 98.7044 24.1107 99.3555 23.9805V21.002H96.6504V18.4824ZM113.223 26.5L112.822 25.1035H112.666C112.347 25.6113 111.895 26.0052 111.309 26.2852C110.723 26.5586 110.055 26.6953 109.307 26.6953C108.024 26.6953 107.057 26.3535 106.406 25.6699C105.755 24.9798 105.43 23.9902 105.43 22.7012V15.582H108.408V21.959C108.408 22.7467 108.548 23.3392 108.828 23.7363C109.108 24.127 109.554 24.3223 110.166 24.3223C110.999 24.3223 111.602 24.0456 111.973 23.4922C112.344 22.9323 112.529 22.0078 112.529 20.7188V15.582H115.508V26.5H113.223ZM118.506 12.7598C118.506 11.7897 119.046 11.3047 120.127 11.3047C121.208 11.3047 121.748 11.7897 121.748 12.7598C121.748 13.222 121.611 13.5833 121.338 13.8438C121.071 14.0977 120.667 14.2246 120.127 14.2246C119.046 14.2246 118.506 13.7363 118.506 12.7598ZM121.611 26.5H118.633V15.582H121.611V26.5ZM128.203 26.6953C126.921 26.6953 125.911 26.1973 125.176 25.2012C124.447 24.2051 124.082 22.8249 124.082 21.0605C124.082 19.2702 124.453 17.877 125.195 16.8809C125.944 15.8783 126.973 15.377 128.281 15.377C129.655 15.377 130.703 15.9108 131.426 16.9785H131.523C131.374 16.1647 131.299 15.4388 131.299 14.8008V11.3047H134.287V26.5H132.002L131.426 25.084H131.299C130.622 26.1582 129.59 26.6953 128.203 26.6953ZM129.248 24.3223C130.01 24.3223 130.566 24.1009 130.918 23.6582C131.276 23.2155 131.471 22.4635 131.504 21.4023V21.0801C131.504 19.9082 131.322 19.0684 130.957 18.5605C130.599 18.0527 130.013 17.7988 129.199 17.7988C128.535 17.7988 128.018 18.082 127.646 18.6484C127.282 19.2083 127.1 20.0254 127.1 21.0996C127.1 22.1738 127.285 22.9811 127.656 23.5215C128.027 24.0553 128.558 24.3223 129.248 24.3223ZM141.924 17.4961C141.292 17.4961 140.798 17.6979 140.439 18.1016C140.081 18.4987 139.876 19.0651 139.824 19.8008H144.004C143.991 19.0651 143.799 18.4987 143.428 18.1016C143.057 17.6979 142.555 17.4961 141.924 17.4961ZM142.344 26.6953C140.586 26.6953 139.212 26.2103 138.223 25.2402C137.233 24.2702 136.738 22.8965 136.738 21.1191C136.738 19.2897 137.194 17.877 138.105 16.8809C139.023 15.8783 140.29 15.377 141.904 15.377C143.447 15.377 144.648 15.8164 145.508 16.6953C146.367 17.5742 146.797 18.7884 146.797 20.3379V21.7832H139.756C139.788 22.6296 140.039 23.2904 140.508 23.7656C140.977 24.2409 141.634 24.4785 142.48 24.4785C143.138 24.4785 143.76 24.4102 144.346 24.2734C144.932 24.1367 145.544 23.9186 146.182 23.6191V25.9238C145.661 26.1842 145.104 26.3763 144.512 26.5C143.919 26.6302 143.197 26.6953 142.344 26.6953Z" fill="#222529"/>
<path d="M22.1346 0.552309C20.8042 -0.181246 19.1941 -0.184267 17.861 0.544292L2.33056 9.03154C0.894374 9.8164 0.000195393 11.3285 0.000173373 12.9722L4.0833e-10 25.9145C-2.29943e-05 27.6311 0.974256 29.1971 2.5093 29.9478L4.70556 31.022C5.24504 29.7223 5.89827 28.4569 6.68583 27.2913C11.0634 20.8126 14.1449 18.7185 17.0134 16.8011C17.2279 16.6577 17.2354 16.3441 17.0283 16.1901L10.3798 11.2476C10.2736 11.1686 10.2808 11.0067 10.3936 10.9377L12.4095 9.70296C12.5121 9.64012 12.6386 9.63103 12.749 9.67855L17.1143 11.5569C17.227 11.6054 17.3561 11.5949 17.4596 11.529L18.9955 10.5496C19.083 10.4939 19.1989 10.5208 19.2533 10.6095L20.1671 12.1014C20.2107 12.1726 20.2019 12.2643 20.1457 12.3259L19.9863 12.5003C19.8989 12.5959 19.9328 12.7498 20.0522 12.7994L22.0868 13.6447C22.1509 13.6714 22.2243 13.6596 22.2786 13.6161C23.1691 12.9036 25.4069 11.6935 28.1451 11.8252C28.3662 11.8358 28.5184 12.0457 28.441 12.2543C28.0396 13.3349 26.7638 15.2381 23.9118 16.602C23.8531 16.6301 23.8119 16.6869 23.8048 16.7518L23.5754 18.847C23.5633 18.9576 23.6494 19.0543 23.7601 19.0543H24.0246C24.0932 19.0543 24.1561 19.0922 24.1885 19.153L24.9803 20.6404C25.0265 20.7273 24.9977 20.8354 24.9144 20.8874L23.2521 21.925C23.2045 21.9547 23.1728 22.0044 23.1658 22.0603L22.5552 26.9251C22.5475 26.9865 22.51 27.0401 22.4552 27.0682L20.2077 28.2196C20.0892 28.2803 19.9476 28.1999 19.938 28.0666L19.3268 19.5853C19.3176 19.4572 19.1866 19.3763 19.0713 19.4314C16.8589 20.488 12.7208 23.8142 12.145 29.6349C11.9581 31.5247 12.0715 33.2465 12.4073 34.7888L18.0494 37.5483C19.2808 38.1506 20.7191 38.1506 21.9506 37.5483L37.4907 29.9478C39.0257 29.1971 40 27.6311 40 25.9145V13.0585C40 11.4207 39.1123 9.91312 37.6842 9.12575L22.1346 0.552309Z" fill="#316BFF"/>
</svg>
